# xmcd CD database file
#
# Track frame offsets:
#	150
#	18287
#	35897
#	55620
#	74312
#	95620
#	122322
#	143475
#	160355
#	170900
#
# Disc length: 2614 seconds
#
# Revision: 2
# Processed by: cddbd v1.5.1PL2 Copyright (c) Steve Scherf et al.
# Submitted via: CDex 1.51
#
DISCID=830a340a
DTITLE=Mike Bloomfield - American Hero
DYEAR=1900
DGENRE=Blues
TTITLE0=Hully Gully
TTITLE1=Wings Of An angel
TTITLE2=Walkin' The Floor
TTITLE3=Don't You Lie To Me
TTITLE4=Junko Partner
TTITLE5=Knockin' Myself Out
TTITLE6=Women Lovin' Each Other
TTITLE7=Cherry Red
TTITLE8=RX For The Blues
TTITLE9=You Must Have Jesus
EXTD=
EXTT0=
EXTT1=
EXTT2=
EXTT3=
EXTT4=
EXTT5=
EXTT6=
EXTT7=
EXTT8=
EXTT9=
PLAYORDER=
